<svg width="286" height="368" viewBox="0 0 286 368" fill="none" xmlns="http://www.w3.org/2000/svg">
<g filter="url(#filter0_d_48_375)">
<path d="M194.895 145.735C180.709 169.804 139.481 175.496 107.294 155.139C80.7033 138.322 62.1169 101.747 74.8962 77.7721C90.7579 50.8622 89.3812 53.1978 89.3812 53.1978C89.3812 53.1978 95.3848 102.1 120.819 120.968C147.336 140.64 208.169 123.216 208.169 123.216C208.169 123.216 196.717 142.644 194.895 145.735Z" fill="url(#paint0_linear_48_375)"/>
<path d="M173.444 123.992C163.411 141.014 251.056 91.7568 179.46 44.9422C107.864 -1.87228 91.134 98.4111 101.167 81.3894C111.2 64.3677 135.514 60.1057 155.472 71.8701C175.431 83.6345 183.477 106.97 173.444 123.992Z" fill="url(#paint1_linear_48_375)"/>
<mask id="path-3-inside-1_48_375" fill="white">
<path fill-rule="evenodd" clip-rule="evenodd" d="M119.352 137.438C152.247 156.827 192.289 149.854 208.788 121.863C225.287 93.8715 211.995 55.4618 179.1 36.0724C146.206 16.683 106.164 23.6562 89.6649 51.6474C73.1658 79.6387 86.4572 118.048 119.352 137.438ZM134.469 112.095C154.059 123.641 177.349 120.429 186.491 104.92C195.632 89.4117 187.162 67.4792 167.573 55.9327C147.984 44.3862 124.694 47.5981 115.552 63.1068C106.411 78.6155 114.88 100.548 134.469 112.095Z"/>
</mask>
<path fill-rule="evenodd" clip-rule="evenodd" d="M119.352 137.438C152.247 156.827 192.289 149.854 208.788 121.863C225.287 93.8715 211.995 55.4618 179.1 36.0724C146.206 16.683 106.164 23.6562 89.6649 51.6474C73.1658 79.6387 86.4572 118.048 119.352 137.438ZM134.469 112.095C154.059 123.641 177.349 120.429 186.491 104.92C195.632 89.4117 187.162 67.4792 167.573 55.9327C147.984 44.3862 124.694 47.5981 115.552 63.1068C106.411 78.6155 114.88 100.548 134.469 112.095Z" fill="url(#paint2_linear_48_375)"/>
<path d="M207.193 120.923C191.349 147.802 152.557 154.861 120.292 135.843L118.412 139.033C151.936 158.793 193.228 151.906 210.382 122.803L207.193 120.923ZM178.16 37.6672C210.426 56.6855 223.036 94.0439 207.193 120.923L210.382 122.803C227.537 93.699 213.565 54.2382 180.04 34.4777L178.16 37.6672ZM91.2597 52.5875C107.103 25.7087 145.895 18.6489 178.16 37.6672L180.04 34.4777C146.516 14.7171 105.225 21.6037 88.0701 50.7074L91.2597 52.5875ZM120.292 135.843C88.0269 116.825 75.4163 79.4662 91.2597 52.5875L88.0701 50.7074C70.9153 79.8111 84.8875 119.272 118.412 139.033L120.292 135.843ZM184.896 103.98C176.466 118.281 154.485 121.744 135.409 110.5L133.529 113.689C153.632 125.538 178.232 122.577 188.085 105.86L184.896 103.98ZM166.633 57.5274C185.709 68.7713 193.325 89.6796 184.896 103.98L188.085 105.86C197.939 89.1438 188.616 66.187 168.513 54.3379L166.633 57.5274ZM117.147 64.0468C125.576 49.7461 147.558 46.2835 166.633 57.5274L168.513 54.3379C148.411 42.4888 123.811 45.4502 113.958 62.1668L117.147 64.0468ZM135.409 110.5C116.334 99.2559 108.718 78.3476 117.147 64.0468L113.958 62.1668C104.104 78.8834 113.427 101.84 133.529 113.689L135.409 110.5Z" fill="url(#paint3_linear_48_375)" mask="url(#path-3-inside-1_48_375)"/>
</g>
<defs>
<filter id="filter0_d_48_375" x="0.76709" y="25.095" width="285.107" height="342.478" filterUnits="userSpaceOnUse" color-interpolation-filters="sRGB">
<feFlood flood-opacity="0" result="BackgroundImageFix"/>
<feColorMatrix in="SourceAlpha" type="matrix" values="0 0 0 0 0 0 0 0 0 0 0 0 0 0 0 0 0 0 127 0" result="hardAlpha"/>
<feOffset dy="130"/>
<feGaussianBlur stdDeviation="35"/>
<feComposite in2="hardAlpha" operator="out"/>
<feColorMatrix type="matrix" values="0 0 0 0 0.388235 0 0 0 0 0.337255 0 0 0 0 0.717647 0 0 0 0.1 0"/>
<feBlend mode="normal" in2="BackgroundImageFix" result="effect1_dropShadow_48_375"/>
<feBlend mode="normal" in="SourceGraphic" in2="effect1_dropShadow_48_375" result="shape"/>
</filter>
<linearGradient id="paint0_linear_48_375" x1="77.3375" y1="99.775" x2="176.368" y2="156.833" gradientUnits="userSpaceOnUse">
<stop stop-color="#A96389"/>
<stop offset="1" stop-color="#BD92EA"/>
</linearGradient>
<linearGradient id="paint1_linear_48_375" x1="176.541" y1="43.0805" x2="138.867" y2="106.997" gradientUnits="userSpaceOnUse">
<stop stop-color="#5049B8"/>
<stop offset="1" stop-color="#846CB2"/>
</linearGradient>
<linearGradient id="paint2_linear_48_375" x1="206.332" y1="46.0168" x2="87.1111" y2="131.029" gradientUnits="userSpaceOnUse">
<stop stop-color="#6684F9"/>
<stop offset="0.504278" stop-color="#E3A2D8"/>
<stop offset="1" stop-color="#FFB989"/>
</linearGradient>
<linearGradient id="paint3_linear_48_375" x1="194.004" y1="44.7488" x2="161.792" y2="132.198" gradientUnits="userSpaceOnUse">
<stop stop-color="#8572FF"/>
<stop offset="1" stop-color="white"/>
</linearGradient>
</defs>
</svg>
