<svg width="76" height="76" viewBox="0 0 76 76" fill="none" xmlns="http://www.w3.org/2000/svg">
<rect x="0.5" y="0.5" width="75" height="75" rx="37.5" fill="url(#paint0_linear_79_474)"/>
<path d="M28.4375 26.8125C27.8739 26.8125 27.3334 27.0364 26.9349 27.4349C26.5364 27.8334 26.3125 28.3739 26.3125 28.9375V48.0625C26.3125 48.6261 26.5364 49.1666 26.9349 49.5651C27.3334 49.9636 27.8739 50.1875 28.4375 50.1875H47.5625C48.1261 50.1875 48.6666 49.9636 49.0651 49.5651C49.4636 49.1666 49.6875 48.6261 49.6875 48.0625V28.9375C49.6875 28.3739 49.4636 27.8334 49.0651 27.4349C48.6666 27.0364 48.1261 26.8125 47.5625 26.8125H28.4375ZM28.4375 24.6875H47.5625C48.6897 24.6875 49.7707 25.1353 50.5677 25.9323C51.3647 26.7293 51.8125 27.8103 51.8125 28.9375V48.0625C51.8125 49.1897 51.3647 50.2707 50.5677 51.0677C49.7707 51.8647 48.6897 52.3125 47.5625 52.3125H28.4375C27.3103 52.3125 26.2293 51.8647 25.4323 51.0677C24.6353 50.2707 24.1875 49.1897 24.1875 48.0625V28.9375C24.1875 27.8103 24.6353 26.7293 25.4323 25.9323C26.2293 25.1353 27.3103 24.6875 28.4375 24.6875Z" fill="white"/>
<path d="M33.75 35.3125C34.3136 35.3125 34.8541 35.0886 35.2526 34.6901C35.6511 34.2916 35.875 33.7511 35.875 33.1875C35.875 32.6239 35.6511 32.0834 35.2526 31.6849C34.8541 31.2864 34.3136 31.0625 33.75 31.0625C33.1864 31.0625 32.6459 31.2864 32.2474 31.6849C31.8489 32.0834 31.625 32.6239 31.625 33.1875C31.625 33.7511 31.8489 34.2916 32.2474 34.6901C32.6459 35.0886 33.1864 35.3125 33.75 35.3125ZM33.75 37.4375C32.6228 37.4375 31.5418 36.9897 30.7448 36.1927C29.9478 35.3957 29.5 34.3147 29.5 33.1875C29.5 32.0603 29.9478 30.9793 30.7448 30.1823C31.5418 29.3853 32.6228 28.9375 33.75 28.9375C34.8772 28.9375 35.9582 29.3853 36.7552 30.1823C37.5522 30.9793 38 32.0603 38 33.1875C38 34.3147 37.5522 35.3957 36.7552 36.1927C35.9582 36.9897 34.8772 37.4375 33.75 37.4375Z" fill="white"/>
<path d="M36.9375 32.125H45.4375C46.1458 32.125 46.5 32.4792 46.5 33.1875C46.5 33.8958 46.1458 34.25 45.4375 34.25H36.9375C36.2292 34.25 35.875 33.8958 35.875 33.1875C35.875 32.4792 36.2292 32.125 36.9375 32.125ZM42.25 45.9375C42.8136 45.9375 43.3541 45.7136 43.7526 45.3151C44.1511 44.9166 44.375 44.3761 44.375 43.8125C44.375 43.2489 44.1511 42.7084 43.7526 42.3099C43.3541 41.9114 42.8136 41.6875 42.25 41.6875C41.6864 41.6875 41.1459 41.9114 40.7474 42.3099C40.3489 42.7084 40.125 43.2489 40.125 43.8125C40.125 44.3761 40.3489 44.9166 40.7474 45.3151C41.1459 45.7136 41.6864 45.9375 42.25 45.9375ZM42.25 48.0625C41.1228 48.0625 40.0418 47.6147 39.2448 46.8177C38.4478 46.0207 38 44.9397 38 43.8125C38 42.6853 38.4478 41.6043 39.2448 40.8073C40.0418 40.0103 41.1228 39.5625 42.25 39.5625C43.3772 39.5625 44.4582 40.0103 45.2552 40.8073C46.0522 41.6043 46.5 42.6853 46.5 43.8125C46.5 44.9397 46.0522 46.0207 45.2552 46.8177C44.4582 47.6147 43.3772 48.0625 42.25 48.0625Z" fill="white"/>
<path d="M30.5625 42.75H39.0625C39.7708 42.75 40.125 43.1042 40.125 43.8125C40.125 44.5208 39.7708 44.875 39.0625 44.875H30.5625C29.8542 44.875 29.5 44.5208 29.5 43.8125C29.5 43.1042 29.8542 42.75 30.5625 42.75Z" fill="white"/>
<defs>
<linearGradient id="paint0_linear_79_474" x1="1.80299" y1="75.5" x2="55.0832" y2="11.9338" gradientUnits="userSpaceOnUse">
<stop stop-color="#00F3B9"/>
<stop offset="1" stop-color="#2187FF"/>
</linearGradient>
</defs>
</svg>
