<svg width="234" height="251" viewBox="0 0 234 251" fill="none" xmlns="http://www.w3.org/2000/svg">
<g filter="url(#filter0_dddi_102_515)">
<path d="M173.097 125.773C173.097 100.795 152.848 80.5457 127.87 80.5457H125.745C100.767 80.5457 80.5178 100.795 80.5178 125.773C80.5178 150.751 100.767 171 125.745 171H127.87C152.848 171 173.097 150.751 173.097 125.773Z" fill="#EEF9FF"/>
<path d="M173.097 125.773C173.097 100.795 152.848 80.5457 127.87 80.5457H125.745C100.767 80.5457 80.5178 100.795 80.5178 125.773C80.5178 150.751 100.767 171 125.745 171H127.87C152.848 171 173.097 150.751 173.097 125.773Z" fill="url(#paint0_radial_102_515)"/>
<path d="M173.097 125.773C173.097 100.795 152.848 80.5457 127.87 80.5457H125.745C100.767 80.5457 80.5178 100.795 80.5178 125.773C80.5178 150.751 100.767 171 125.745 171H127.87C152.848 171 173.097 150.751 173.097 125.773Z" fill="url(#paint1_radial_102_515)"/>
<path d="M173.097 125.773C173.097 100.795 152.848 80.5457 127.87 80.5457H125.745C100.767 80.5457 80.5178 100.795 80.5178 125.773C80.5178 150.751 100.767 171 125.745 171H127.87C152.848 171 173.097 150.751 173.097 125.773Z" fill="url(#paint2_radial_102_515)"/>
<path d="M173.097 125.773C173.097 100.795 152.848 80.5457 127.87 80.5457H125.745C100.767 80.5457 80.5178 100.795 80.5178 125.773C80.5178 150.751 100.767 171 125.745 171H127.87C152.848 171 173.097 150.751 173.097 125.773Z" fill="url(#paint3_radial_102_515)" fill-opacity="0.2"/>
</g>
<g filter="url(#filter1_i_102_515)">
<rect width="94.0968" height="90.4544" rx="45.2272" transform="matrix(-1 0 0 1 173.097 80.5457)" fill="#EEF9FF"/>
<rect width="94.0968" height="90.4544" rx="45.2272" transform="matrix(-1 0 0 1 173.097 80.5457)" fill="url(#paint4_radial_102_515)"/>
<rect width="94.0968" height="90.4544" rx="45.2272" transform="matrix(-1 0 0 1 173.097 80.5457)" fill="url(#paint5_radial_102_515)"/>
<rect width="94.0968" height="90.4544" rx="45.2272" transform="matrix(-1 0 0 1 173.097 80.5457)" fill="url(#paint6_radial_102_515)"/>
<rect width="94.0968" height="90.4544" rx="45.2272" transform="matrix(-1 0 0 1 173.097 80.5457)" fill="url(#paint7_radial_102_515)" fill-opacity="0.2"/>
</g>
<defs>
<filter id="filter0_dddi_102_515" x="0.517754" y="0.545654" width="232.579" height="250.454" filterUnits="userSpaceOnUse" color-interpolation-filters="sRGB">
<feFlood flood-opacity="0" result="BackgroundImageFix"/>
<feColorMatrix in="SourceAlpha" type="matrix" values="0 0 0 0 0 0 0 0 0 0 0 0 0 0 0 0 0 0 127 0" result="hardAlpha"/>
<feOffset dy="10"/>
<feGaussianBlur stdDeviation="30"/>
<feComposite in2="hardAlpha" operator="out"/>
<feColorMatrix type="matrix" values="0 0 0 0 0.501961 0 0 0 0 0.501961 0 0 0 0 0.501961 0 0 0 0.81 0"/>
<feBlend mode="normal" in2="BackgroundImageFix" result="effect1_dropShadow_102_515"/>
<feColorMatrix in="SourceAlpha" type="matrix" values="0 0 0 0 0 0 0 0 0 0 0 0 0 0 0 0 0 0 127 0" result="hardAlpha"/>
<feOffset dy="20"/>
<feGaussianBlur stdDeviation="30"/>
<feComposite in2="hardAlpha" operator="out"/>
<feColorMatrix type="matrix" values="0 0 0 0 0.0916319 0 0 0 0 0.758333 0 0 0 0 0.707537 0 0 0 0.2 0"/>
<feBlend mode="normal" in2="effect1_dropShadow_102_515" result="effect2_dropShadow_102_515"/>
<feColorMatrix in="SourceAlpha" type="matrix" values="0 0 0 0 0 0 0 0 0 0 0 0 0 0 0 0 0 0 127 0" result="hardAlpha"/>
<feOffset dx="-20" dy="-20"/>
<feGaussianBlur stdDeviation="30"/>
<feComposite in2="hardAlpha" operator="out"/>
<feColorMatrix type="matrix" values="0 0 0 0 1 0 0 0 0 0.906667 0 0 0 0 0.416667 0 0 0 0.3 0"/>
<feBlend mode="normal" in2="effect2_dropShadow_102_515" result="effect3_dropShadow_102_515"/>
<feBlend mode="normal" in="SourceGraphic" in2="effect3_dropShadow_102_515" result="shape"/>
<feColorMatrix in="SourceAlpha" type="matrix" values="0 0 0 0 0 0 0 0 0 0 0 0 0 0 0 0 0 0 127 0" result="hardAlpha"/>
<feOffset/>
<feGaussianBlur stdDeviation="5"/>
<feComposite in2="hardAlpha" operator="arithmetic" k2="-1" k3="1"/>
<feColorMatrix type="matrix" values="0 0 0 0 1 0 0 0 0 1 0 0 0 0 1 0 0 0 0.8 0"/>
<feBlend mode="normal" in2="shape" result="effect4_innerShadow_102_515"/>
</filter>
<filter id="filter1_i_102_515" x="79.0001" y="80.5457" width="94.0968" height="90.4543" filterUnits="userSpaceOnUse" color-interpolation-filters="sRGB">
<feFlood flood-opacity="0" result="BackgroundImageFix"/>
<feBlend mode="normal" in="SourceGraphic" in2="BackgroundImageFix" result="shape"/>
<feColorMatrix in="SourceAlpha" type="matrix" values="0 0 0 0 0 0 0 0 0 0 0 0 0 0 0 0 0 0 127 0" result="hardAlpha"/>
<feOffset/>
<feGaussianBlur stdDeviation="2"/>
<feComposite in2="hardAlpha" operator="arithmetic" k2="-1" k3="1"/>
<feColorMatrix type="matrix" values="0 0 0 0 1 0 0 0 0 1 0 0 0 0 1 0 0 0 1 0"/>
<feBlend mode="normal" in2="shape" result="effect1_innerShadow_102_515"/>
</filter>
<radialGradient id="paint0_radial_102_515" cx="0" cy="0" r="1" gradientUnits="userSpaceOnUse" gradientTransform="translate(3.98216 198.344) rotate(-132.249) scale(80.1917 95.3416)">
<stop stop-color="#6681E2" stop-opacity="0.81"/>
<stop offset="0.953677" stop-color="#6681E2" stop-opacity="0"/>
</radialGradient>
<radialGradient id="paint1_radial_102_515" cx="0" cy="0" r="1" gradientUnits="userSpaceOnUse" gradientTransform="translate(16.6066 78.916) rotate(86.028) scale(94.9225 79.1252)">
<stop stop-color="#F3CC3C"/>
<stop offset="1" stop-color="#F3CC3C" stop-opacity="0.18"/>
</radialGradient>
<radialGradient id="paint2_radial_102_515" cx="0" cy="0" r="1" gradientUnits="userSpaceOnUse" gradientTransform="translate(-62.0331 85.276) rotate(47.0635) scale(142.858 121.934)">
<stop offset="0.196645" stop-color="#13E5D5" stop-opacity="0.5"/>
<stop offset="0.710624" stop-color="#13E5D5" stop-opacity="0.06"/>
</radialGradient>
<radialGradient id="paint3_radial_102_515" cx="0" cy="0" r="1" gradientUnits="userSpaceOnUse" gradientTransform="translate(-11.0093 114.956) rotate(90) scale(74.9075 102.047)">
<stop stop-color="white" stop-opacity="0.49"/>
<stop offset="1" stop-color="white" stop-opacity="0.19"/>
</radialGradient>
<radialGradient id="paint4_radial_102_515" cx="0" cy="0" r="1" gradientUnits="userSpaceOnUse" gradientTransform="translate(31.8111 98.9345) rotate(-47.2874) scale(80.7887 96.1886)">
<stop stop-color="#6681E2" stop-opacity="0.81"/>
<stop offset="0.953677" stop-color="#6681E2" stop-opacity="0"/>
</radialGradient>
<radialGradient id="paint5_radial_102_515" cx="0" cy="0" r="1" gradientUnits="userSpaceOnUse" gradientTransform="translate(18.9798 -20.4936) rotate(94.0369) scale(94.93 80.4159)">
<stop stop-color="#1D52A0"/>
<stop offset="1" stop-color="#1D52A0" stop-opacity="0.18"/>
</radialGradient>
<radialGradient id="paint6_radial_102_515" cx="0" cy="0" r="1" gradientUnits="userSpaceOnUse" gradientTransform="translate(98.9086 -14.1335) rotate(133.401) scale(143.95 122.993)">
<stop offset="0.196645" stop-color="#13E5D5" stop-opacity="0.5"/>
<stop offset="0.710624" stop-color="#13E5D5" stop-opacity="0.06"/>
</radialGradient>
<radialGradient id="paint7_radial_102_515" cx="0" cy="0" r="1" gradientUnits="userSpaceOnUse" gradientTransform="translate(47.0484 15.5468) rotate(90) scale(74.9075 103.72)">
<stop stop-color="white" stop-opacity="0.49"/>
<stop offset="1" stop-color="white" stop-opacity="0.19"/>
</radialGradient>
</defs>
</svg>
