<svg width="51" height="34" viewBox="0 0 51 34" fill="none" xmlns="http://www.w3.org/2000/svg">
<path d="M22.6549 11.5394C22.6708 10.204 22.2594 9.118 21.736 9.11378C21.2127 9.10959 20.7756 10.1887 20.7597 11.5241C20.7438 12.8595 21.1553 13.9455 21.6786 13.9497C22.2019 13.9539 22.6391 12.8748 22.6549 11.5394Z" stroke="#0FC1D9" stroke-width="0.8" stroke-miterlimit="10"/>
<path d="M19.6197 11.236C20.5104 10.1197 20.8779 9.0231 20.4404 8.7867C20.0029 8.55031 18.9261 9.26363 18.0354 10.38C17.1447 11.4963 16.7772 12.5929 17.2147 12.8293C17.6522 13.0657 18.7289 12.3524 19.6197 11.236Z" stroke="#0FC1D9" stroke-width="0.8" stroke-miterlimit="10"/>
<path d="M17.2618 9.63438C18.7446 9.09164 19.7742 8.33263 19.5615 7.9391C19.3488 7.54557 17.9743 7.66657 16.4915 8.20934C15.0088 8.75208 13.9792 9.51109 14.1919 9.90462C14.4046 10.2981 15.7791 10.1772 17.2618 9.63438Z" stroke="#0FC1D9" stroke-width="0.8" stroke-miterlimit="10"/>
<path d="M19.3833 6.83551C19.463 6.40983 18.2273 5.90005 16.6233 5.69688C15.0194 5.49372 13.6545 5.67413 13.5749 6.09981C13.4953 6.52549 14.731 7.03524 16.335 7.23841C17.9389 7.44157 19.3038 7.26116 19.3833 6.83551Z" stroke="#0FC1D9" stroke-width="0.8" stroke-miterlimit="10"/>
<path d="M19.9596 5.82152C20.3062 5.49882 19.6014 4.52026 18.3854 3.63587C17.1694 2.75149 15.9026 2.29616 15.5561 2.61888C15.2095 2.94161 15.9143 3.92016 17.1303 4.80455C18.3463 5.68895 19.613 6.14425 19.9596 5.82152Z" stroke="#0FC1D9" stroke-width="0.8" stroke-miterlimit="10"/>
<path d="M21.1064 5.22883C21.61 5.11156 21.6601 3.97477 21.2182 2.68976C20.7763 1.40475 20.0099 0.458101 19.5063 0.575371C19.0027 0.692641 18.9527 1.82941 19.3945 3.11444C19.8364 4.39943 20.6028 5.34609 21.1064 5.22883Z" stroke="#0FC1D9" stroke-width="0.8" stroke-miterlimit="10"/>
<path d="M24.2206 3.15446C24.6932 1.87686 24.6704 0.73949 24.1697 0.614072C23.669 0.488652 22.88 1.42267 22.4074 2.70027C21.9349 3.97786 21.9576 5.11523 22.4583 5.24064C22.959 5.36606 23.748 4.43206 24.2206 3.15446Z" stroke="#0FC1D9" stroke-width="0.8" stroke-miterlimit="10"/>
<path d="M26.4458 4.8807C27.6826 4.01604 28.4105 3.04901 28.0716 2.72079C27.7328 2.39256 26.4555 2.82743 25.2187 3.69206C23.9819 4.55672 23.254 5.52375 23.5929 5.85198C23.9317 6.18021 25.209 5.74537 26.4458 4.8807Z" stroke="#0FC1D9" stroke-width="0.8" stroke-miterlimit="10"/>
<path d="M27.1815 7.32361C28.79 7.14652 30.0377 6.65691 29.9683 6.23001C29.8989 5.80313 28.5387 5.60063 26.9302 5.7777C25.3217 5.95479 24.074 6.4444 24.1434 6.87131C24.2128 7.29818 25.573 7.50071 27.1815 7.32361Z" stroke="#0FC1D9" stroke-width="0.8" stroke-miterlimit="10"/>
<path d="M29.2563 10.0266C29.4784 9.63665 28.4672 8.86108 26.9977 8.29436C25.5283 7.72764 24.157 7.58439 23.9349 7.97436C23.7128 8.36437 24.724 9.13993 26.1935 9.70666C27.6629 10.2733 29.0342 10.4166 29.2563 10.0266Z" stroke="#0FC1D9" stroke-width="0.8" stroke-miterlimit="10"/>
<path d="M26.1655 12.9041C26.6086 12.6749 26.2675 11.5725 25.4037 10.442C24.5399 9.31141 23.4804 8.58077 23.0374 8.81001C22.5943 9.03925 22.9354 10.1416 23.7992 11.2722C24.663 12.4027 25.7225 13.1334 26.1655 12.9041Z" stroke="#0FC1D9" stroke-width="0.8" stroke-miterlimit="10"/>
<path d="M6.59763 33.2037H0V16.3183H6.80661C8.80348 16.3183 10.5184 16.6563 11.9514 17.3324C13.3843 18.003 14.4823 18.9676 15.2452 20.2263C16.0148 21.4795 16.3995 22.9829 16.3995 24.7363C16.3995 26.4952 16.0115 28.0067 15.2353 29.2709C14.4657 30.5351 13.3512 31.508 11.8917 32.1896C10.4322 32.8657 8.66748 33.2037 6.59763 33.2037ZM3.07491 30.9776H6.42846C7.98085 30.9776 9.27118 30.7358 10.2995 30.2521C11.3278 29.7629 12.0973 29.0566 12.6081 28.1331C13.119 27.2042 13.3744 26.0719 13.3744 24.7363C13.3744 23.4116 13.119 22.2875 12.6081 21.3641C12.104 20.4407 11.351 19.7399 10.3492 19.2617C9.34748 18.7835 8.10358 18.5444 6.61754 18.5444H3.07491V30.9776Z" fill="#0FC1D9"/>
<path d="M24.5 16.4914L23.018 33.2037H19.9431L19 21.1415L24.5 16.4914Z" fill="#0FC1D9"/>
<path d="M41.0081 21.6527C40.8157 21.1525 40.557 20.7045 40.2319 20.3088C39.9135 19.9075 39.532 19.5667 39.0875 19.2864C38.6431 19.0006 38.1355 18.7835 37.565 18.6351C37.0011 18.4867 36.3808 18.4125 35.7041 18.4125C34.5564 18.4125 33.5215 18.6571 32.5994 19.1462C31.6772 19.6354 30.9475 20.3527 30.4101 21.2982C29.8794 22.2381 29.614 23.3896 29.614 24.7528C29.614 26.1214 29.8827 27.2784 30.4201 28.2238C30.9574 29.1692 31.6938 29.8866 32.6292 30.3757C33.5646 30.8649 34.6294 31.1095 35.8236 31.1095C36.9315 31.1095 37.8967 30.9227 38.7193 30.5489C39.5486 30.1751 40.1888 29.6475 40.6399 28.9659C41.0977 28.2788 41.3266 27.4708 41.3266 26.5419L42.1227 26.6656H36.2913V24.5631H44.302V26.4842C44.302 27.9023 43.9371 29.1335 43.2073 30.1779C42.4842 31.2167 41.4825 32.0192 40.2021 32.5854C38.9283 33.1515 37.4688 33.4346 35.8236 33.4346C33.9793 33.4346 32.3605 33.0828 30.9674 32.3792C29.5808 31.6757 28.4995 30.6781 27.7233 29.3864C26.9471 28.0892 26.559 26.5501 26.559 24.7692C26.559 23.4226 26.7846 22.2133 27.2357 21.1415C27.6868 20.0697 28.3204 19.16 29.1364 18.4125C29.959 17.6594 30.9243 17.085 32.0322 16.6893C33.1467 16.288 34.3641 16.0874 35.6842 16.0874C36.7855 16.0874 37.8105 16.2221 38.7592 16.4914C39.7145 16.7607 40.5636 17.1427 41.3067 17.6374C42.0563 18.1321 42.6766 18.7203 43.1675 19.4018C43.6585 20.0779 43.9902 20.8282 44.1626 21.6527H41.0081Z" fill="#0FC1D9"/>
<path d="M51 16.3183V33.2037H47.9251V16.3183H51Z" fill="#0FC1D9"/>
</svg>
