<svg width="256" height="261" viewBox="0 0 256 261" fill="none" xmlns="http://www.w3.org/2000/svg">
<g filter="url(#filter0_i_102_503)">
<path d="M165.311 115.718C165.311 90.6749 145.01 70.3738 119.967 70.3738H115.344C90.3011 70.3738 70 90.6749 70 115.718C70 140.76 90.3011 161.062 115.344 161.062H119.967C145.01 161.062 165.311 140.76 165.311 115.718Z" fill="#5B099B"/>
<path d="M165.311 115.718C165.311 90.6749 145.01 70.3738 119.967 70.3738H115.344C90.3011 70.3738 70 90.6749 70 115.718C70 140.76 90.3011 161.062 115.344 161.062H119.967C145.01 161.062 165.311 140.76 165.311 115.718Z" fill="url(#paint0_radial_102_503)"/>
<path d="M165.311 115.718C165.311 90.6749 145.01 70.3738 119.967 70.3738H115.344C90.3011 70.3738 70 90.6749 70 115.718C70 140.76 90.3011 161.062 115.344 161.062H119.967C145.01 161.062 165.311 140.76 165.311 115.718Z" fill="url(#paint1_radial_102_503)"/>
<path d="M165.311 115.718C165.311 90.6749 145.01 70.3738 119.967 70.3738H115.344C90.3011 70.3738 70 90.6749 70 115.718C70 140.76 90.3011 161.062 115.344 161.062H119.967C145.01 161.062 165.311 140.76 165.311 115.718Z" fill="url(#paint2_radial_102_503)" fill-opacity="0.3"/>
<path d="M165.311 115.718C165.311 90.6749 145.01 70.3738 119.967 70.3738H115.344C90.3011 70.3738 70 90.6749 70 115.718C70 140.76 90.3011 161.062 115.344 161.062H119.967C145.01 161.062 165.311 140.76 165.311 115.718Z" fill="url(#paint3_radial_102_503)" fill-opacity="0.1"/>
<path d="M165.311 115.718C165.311 90.6749 145.01 70.3738 119.967 70.3738H115.344C90.3011 70.3738 70 90.6749 70 115.718C70 140.76 90.3011 161.062 115.344 161.062H119.967C145.01 161.062 165.311 140.76 165.311 115.718Z" fill="url(#paint4_radial_102_503)" fill-opacity="0.2"/>
</g>
<g filter="url(#filter1_dddi_102_503)">
<path d="M165.311 115.344C165.311 90.3011 145.01 70 119.967 70H115.344C90.3011 70 70 90.3011 70 115.344C70 140.387 90.3011 160.688 115.344 160.688H119.967C145.01 160.688 165.311 140.387 165.311 115.344Z" fill="#5B099B"/>
<path d="M165.311 115.344C165.311 90.3011 145.01 70 119.967 70H115.344C90.3011 70 70 90.3011 70 115.344C70 140.387 90.3011 160.688 115.344 160.688H119.967C145.01 160.688 165.311 140.387 165.311 115.344Z" fill="url(#paint5_radial_102_503)"/>
<path d="M165.311 115.344C165.311 90.3011 145.01 70 119.967 70H115.344C90.3011 70 70 90.3011 70 115.344C70 140.387 90.3011 160.688 115.344 160.688H119.967C145.01 160.688 165.311 140.387 165.311 115.344Z" fill="url(#paint6_radial_102_503)"/>
<path d="M165.311 115.344C165.311 90.3011 145.01 70 119.967 70H115.344C90.3011 70 70 90.3011 70 115.344C70 140.387 90.3011 160.688 115.344 160.688H119.967C145.01 160.688 165.311 140.387 165.311 115.344Z" fill="url(#paint7_radial_102_503)" fill-opacity="0.3"/>
<path d="M165.311 115.344C165.311 90.3011 145.01 70 119.967 70H115.344C90.3011 70 70 90.3011 70 115.344C70 140.387 90.3011 160.688 115.344 160.688H119.967C145.01 160.688 165.311 140.387 165.311 115.344Z" fill="url(#paint8_radial_102_503)" fill-opacity="0.1"/>
<path d="M165.311 115.344C165.311 90.3011 145.01 70 119.967 70H115.344C90.3011 70 70 90.3011 70 115.344C70 140.387 90.3011 160.688 115.344 160.688H119.967C145.01 160.688 165.311 140.387 165.311 115.344Z" fill="url(#paint9_radial_102_503)" fill-opacity="0.2"/>
</g>
<defs>
<filter id="filter0_i_102_503" x="70" y="70.3738" width="95.311" height="90.6877" filterUnits="userSpaceOnUse" color-interpolation-filters="sRGB">
<feFlood flood-opacity="0" result="BackgroundImageFix"/>
<feBlend mode="normal" in="SourceGraphic" in2="BackgroundImageFix" result="shape"/>
<feColorMatrix in="SourceAlpha" type="matrix" values="0 0 0 0 0 0 0 0 0 0 0 0 0 0 0 0 0 0 127 0" result="hardAlpha"/>
<feOffset/>
<feGaussianBlur stdDeviation="5"/>
<feComposite in2="hardAlpha" operator="arithmetic" k2="-1" k3="1"/>
<feColorMatrix type="matrix" values="0 0 0 0 1 0 0 0 0 1 0 0 0 0 1 0 0 0 0.8 0"/>
<feBlend mode="normal" in2="shape" result="effect1_innerShadow_102_503"/>
</filter>
<filter id="filter1_dddi_102_503" x="-1.52588e-05" y="0" width="255.311" height="260.688" filterUnits="userSpaceOnUse" color-interpolation-filters="sRGB">
<feFlood flood-opacity="0" result="BackgroundImageFix"/>
<feColorMatrix in="SourceAlpha" type="matrix" values="0 0 0 0 0 0 0 0 0 0 0 0 0 0 0 0 0 0 127 0" result="hardAlpha"/>
<feOffset dy="10"/>
<feGaussianBlur stdDeviation="30"/>
<feComposite in2="hardAlpha" operator="out"/>
<feColorMatrix type="matrix" values="0 0 0 0 0.49177 0 0 0 0 0.0782639 0 0 0 0 0.816667 0 0 0 0.8 0"/>
<feBlend mode="normal" in2="BackgroundImageFix" result="effect1_dropShadow_102_503"/>
<feColorMatrix in="SourceAlpha" type="matrix" values="0 0 0 0 0 0 0 0 0 0 0 0 0 0 0 0 0 0 127 0" result="hardAlpha"/>
<feOffset dx="10" dy="20"/>
<feGaussianBlur stdDeviation="40"/>
<feComposite in2="hardAlpha" operator="out"/>
<feColorMatrix type="matrix" values="0 0 0 0 0.854167 0 0 0 0 0.14592 0 0 0 0 0.613363 0 0 0 0.3 0"/>
<feBlend mode="normal" in2="effect1_dropShadow_102_503" result="effect2_dropShadow_102_503"/>
<feColorMatrix in="SourceAlpha" type="matrix" values="0 0 0 0 0 0 0 0 0 0 0 0 0 0 0 0 0 0 127 0" result="hardAlpha"/>
<feOffset dx="-20" dy="-20"/>
<feGaussianBlur stdDeviation="25"/>
<feComposite in2="hardAlpha" operator="out"/>
<feColorMatrix type="matrix" values="0 0 0 0 0.399 0 0 0 0 0.26125 0 0 0 0 0.95 0 0 0 0.5 0"/>
<feBlend mode="normal" in2="effect2_dropShadow_102_503" result="effect3_dropShadow_102_503"/>
<feBlend mode="normal" in="SourceGraphic" in2="effect3_dropShadow_102_503" result="shape"/>
<feColorMatrix in="SourceAlpha" type="matrix" values="0 0 0 0 0 0 0 0 0 0 0 0 0 0 0 0 0 0 127 0" result="hardAlpha"/>
<feOffset/>
<feGaussianBlur stdDeviation="5"/>
<feComposite in2="hardAlpha" operator="arithmetic" k2="-1" k3="1"/>
<feColorMatrix type="matrix" values="0 0 0 0 1 0 0 0 0 1 0 0 0 0 1 0 0 0 0.4 0"/>
<feBlend mode="normal" in2="shape" result="effect4_innerShadow_102_503"/>
</filter>
<radialGradient id="paint0_radial_102_503" cx="0" cy="0" r="1" gradientUnits="userSpaceOnUse" gradientTransform="translate(123.612 42.0339) rotate(95.8037) scale(133.884 86.2022)">
<stop offset="0.241623" stop-color="#AA229C" stop-opacity="0.92"/>
<stop offset="0.848853" stop-color="#7547B0" stop-opacity="0.89"/>
</radialGradient>
<radialGradient id="paint1_radial_102_503" cx="0" cy="0" r="1" gradientUnits="userSpaceOnUse" gradientTransform="translate(131.736 70.3738) rotate(99.1779) scale(88.2754 74.2519)">
<stop stop-color="#C243FE"/>
<stop offset="1" stop-color="#B62FF6" stop-opacity="0.12"/>
</radialGradient>
<radialGradient id="paint2_radial_102_503" cx="0" cy="0" r="1" gradientUnits="userSpaceOnUse" gradientTransform="translate(135.526 139.807) rotate(-70.7889) scale(51.019 54.3952)">
<stop stop-color="white" stop-opacity="0.73"/>
<stop offset="1" stop-color="white" stop-opacity="0.12"/>
</radialGradient>
<radialGradient id="paint3_radial_102_503" cx="0" cy="0" r="1" gradientUnits="userSpaceOnUse" gradientTransform="translate(117.655 98.7137) rotate(90) scale(62.3478 63.3602)">
<stop stop-color="white"/>
<stop offset="1" stop-color="white" stop-opacity="0"/>
</radialGradient>
<radialGradient id="paint4_radial_102_503" cx="0" cy="0" r="1" gradientUnits="userSpaceOnUse" gradientTransform="translate(79.2062 131.305) rotate(37.7372) scale(48.6192 237.938)">
<stop stop-color="white"/>
<stop offset="1" stop-color="white" stop-opacity="0"/>
</radialGradient>
<radialGradient id="paint5_radial_102_503" cx="0" cy="0" r="1" gradientUnits="userSpaceOnUse" gradientTransform="translate(123.612 41.6601) rotate(95.8037) scale(133.884 86.2022)">
<stop offset="0.241623" stop-color="#AA229C" stop-opacity="0.92"/>
<stop offset="0.848853" stop-color="#A25FF8" stop-opacity="0.89"/>
</radialGradient>
<radialGradient id="paint6_radial_102_503" cx="0" cy="0" r="1" gradientUnits="userSpaceOnUse" gradientTransform="translate(131.736 70) rotate(99.1779) scale(88.2754 74.2519)">
<stop stop-color="#C243FE"/>
<stop offset="1" stop-color="#B62FF6" stop-opacity="0.12"/>
</radialGradient>
<radialGradient id="paint7_radial_102_503" cx="0" cy="0" r="1" gradientUnits="userSpaceOnUse" gradientTransform="translate(135.526 139.433) rotate(-70.7889) scale(51.019 54.3952)">
<stop stop-color="white" stop-opacity="0.73"/>
<stop offset="1" stop-color="white" stop-opacity="0.12"/>
</radialGradient>
<radialGradient id="paint8_radial_102_503" cx="0" cy="0" r="1" gradientUnits="userSpaceOnUse" gradientTransform="translate(117.655 98.3399) rotate(90) scale(62.3478 63.3602)">
<stop stop-color="white"/>
<stop offset="1" stop-color="white" stop-opacity="0"/>
</radialGradient>
<radialGradient id="paint9_radial_102_503" cx="0" cy="0" r="1" gradientUnits="userSpaceOnUse" gradientTransform="translate(79.2062 130.931) rotate(37.7372) scale(48.6192 237.938)">
<stop stop-color="white"/>
<stop offset="1" stop-color="white" stop-opacity="0"/>
</radialGradient>
</defs>
</svg>
