<svg width="76" height="75" viewBox="0 0 76 75" fill="none" xmlns="http://www.w3.org/2000/svg">
<rect x="0.5" width="75" height="75" rx="37.5" fill="url(#paint0_linear_67_424)"/>
<path d="M28.6667 33.3333L27.8418 34.1582L27.017 33.3333L27.8418 32.5085L28.6667 33.3333ZM34.5 47.3333C34.1906 47.3333 33.8938 47.2104 33.675 46.9916C33.4562 46.7728 33.3333 46.4761 33.3333 46.1667C33.3333 45.8573 33.4562 45.5605 33.675 45.3417C33.8938 45.1229 34.1906 45 34.5 45V47.3333ZM33.6752 39.9915L27.8418 34.1582L29.4915 32.5085L35.3248 38.3418L33.6752 39.9915ZM27.8418 32.5085L33.6752 26.6752L35.3248 28.3248L29.4915 34.1582L27.8418 32.5085ZM28.6667 32.1667H40.9167V34.5H28.6667V32.1667ZM40.9167 47.3333H34.5V45H40.9167V47.3333ZM48.5 39.75C48.5 41.7612 47.701 43.6901 46.2789 45.1122C44.8567 46.5344 42.9279 47.3333 40.9167 47.3333V45C41.6061 45 42.2888 44.8642 42.9258 44.6004C43.5627 44.3365 44.1415 43.9498 44.629 43.4623C45.1165 42.9748 45.5032 42.3961 45.767 41.7591C46.0309 41.1221 46.1667 40.4394 46.1667 39.75H48.5ZM40.9167 32.1667C42.9279 32.1667 44.8567 32.9656 46.2789 34.3878C47.701 35.8099 48.5 37.7388 48.5 39.75H46.1667C46.1667 39.0606 46.0309 38.3779 45.767 37.7409C45.5032 37.104 45.1165 36.5252 44.629 36.0377C44.1415 35.5502 43.5627 35.1635 42.9258 34.8996C42.2888 34.6358 41.6061 34.5 40.9167 34.5V32.1667Z" fill="white"/>
<defs>
<linearGradient id="paint0_linear_67_424" x1="1.80299" y1="75" x2="55.0832" y2="11.4338" gradientUnits="userSpaceOnUse">
<stop stop-color="#00F3B9"/>
<stop offset="1" stop-color="#2187FF"/>
</linearGradient>
</defs>
</svg>
