<svg width="75" height="75" viewBox="0 0 75 75" fill="none" xmlns="http://www.w3.org/2000/svg">
<rect width="75" height="75" rx="37.5" fill="url(#paint0_linear_79_483)"/>
<g clip-path="url(#clip0_79_483)">
<path d="M32.1667 36.3333V30.5C32.1667 27 34.5 24.6666 38 24.6666C41.5 24.6666 43.8333 27 43.8333 30.5V36.3333M38 41V45.6666M38 50.3333C40.1659 50.3333 42.2432 49.4729 43.7747 47.9413C45.3063 46.4098 46.1667 44.3326 46.1667 42.1666C46.1667 40.0007 45.3063 37.9235 43.7747 36.3919C42.2432 34.8604 40.1659 34 38 34C35.8341 34 33.7568 34.8604 32.2253 36.3919C30.6938 37.9235 29.8333 40.0007 29.8333 42.1666C29.8333 44.3326 30.6938 46.4098 32.2253 47.9413C33.7568 49.4729 35.8341 50.3333 38 50.3333ZM38 42.1666C38.3094 42.1666 38.6062 42.0437 38.825 41.8249C39.0438 41.6061 39.1667 41.3094 39.1667 41C39.1667 40.6905 39.0438 40.3938 38.825 40.175C38.6062 39.9562 38.3094 39.8333 38 39.8333C37.6906 39.8333 37.3938 39.9562 37.175 40.175C36.9563 40.3938 36.8333 40.6905 36.8333 41C36.8333 41.3094 36.9563 41.6061 37.175 41.8249C37.3938 42.0437 37.6906 42.1666 38 42.1666Z" stroke="white" stroke-width="2"/>
</g>
<defs>
<linearGradient id="paint0_linear_79_483" x1="1.30299" y1="75" x2="54.5832" y2="11.4338" gradientUnits="userSpaceOnUse">
<stop stop-color="#00F3B9"/>
<stop offset="1" stop-color="#2187FF"/>
</linearGradient>
<clipPath id="clip0_79_483">
<rect width="28" height="28" fill="white" transform="translate(24 23.5)"/>
</clipPath>
</defs>
</svg>
