<svg width="75" height="76" viewBox="0 0 75 76" fill="none" xmlns="http://www.w3.org/2000/svg">
<rect y="0.5" width="75" height="75" rx="37.5" fill="url(#paint0_linear_67_433)"/>
<path d="M36 38.59L33.41 36L32 37.41L36 41.41L44 33.41L42.59 32L36 38.59Z" fill="white"/>
<path d="M38 52L31.824 48.707C30.0633 47.7703 28.591 46.3719 27.5649 44.6617C26.5389 42.9516 25.9979 40.9943 26 39V26C26.0005 25.4697 26.2114 24.9613 26.5864 24.5864C26.9613 24.2114 27.4697 24.0005 28 24H48C48.5303 24.0005 49.0387 24.2114 49.4136 24.5864C49.7886 24.9613 49.9995 25.4697 50 26V39C50.0021 40.9943 49.4611 42.9516 48.4351 44.6617C47.409 46.3719 45.9367 47.7703 44.176 48.707L38 52ZM28 26V39C27.9983 40.6318 28.4411 42.2333 29.2808 43.6325C30.1204 45.0317 31.3253 46.1758 32.766 46.942L38 49.733L43.234 46.943C44.6749 46.1767 45.8798 45.0324 46.7195 43.633C47.5592 42.2336 48.0018 40.632 48 39V26H28Z" fill="white"/>
<defs>
<linearGradient id="paint0_linear_67_433" x1="1.30299" y1="75.5" x2="54.5832" y2="11.9338" gradientUnits="userSpaceOnUse">
<stop stop-color="#00F3B9"/>
<stop offset="1" stop-color="#2187FF"/>
</linearGradient>
</defs>
</svg>
