<svg width="75" height="75" viewBox="0 0 75 75" fill="none" xmlns="http://www.w3.org/2000/svg">
<rect width="75" height="75" rx="37.5" fill="url(#paint0_linear_67_415)"/>
<path d="M33.2105 39C33.8805 39 34.5231 38.751 34.9969 38.3077C35.4707 37.8644 35.7368 37.2632 35.7368 36.6364C35.7368 36.0095 35.4707 35.4083 34.9969 34.965C34.5231 34.5218 33.8805 34.2727 33.2105 34.2727C32.5405 34.2727 31.8979 34.5218 31.4242 34.965C30.9504 35.4083 30.6842 36.0095 30.6842 36.6364C30.6842 37.2632 30.9504 37.8644 31.4242 38.3077C31.8979 38.751 32.5405 39 33.2105 39ZM49 32.5L37 26L25 32.5V45.5L37 52L49 45.5V32.5ZM37 28.7312L46.4737 33.8626V41.9935L40.7112 38.7601L30.6425 45.825L27.5263 44.1374V33.8626L37 28.7312ZM37 49.2688L33.0185 47.112L40.8678 41.6047L45.9179 44.4387L37 49.2688Z" fill="white"/>
<defs>
<linearGradient id="paint0_linear_67_415" x1="1.30299" y1="75" x2="54.5832" y2="11.4338" gradientUnits="userSpaceOnUse">
<stop stop-color="#00F3B9"/>
<stop offset="1" stop-color="#2187FF"/>
</linearGradient>
</defs>
</svg>
