<svg width="75" height="75" viewBox="0 0 75 75" fill="none" xmlns="http://www.w3.org/2000/svg">
<rect width="75" height="75" rx="37.5" fill="url(#paint0_linear_79_465)"/>
<path d="M37 50C35.3333 50 33.772 49.6831 32.316 49.0493C30.86 48.4156 29.5933 47.5604 28.516 46.484C27.4387 45.4058 26.5836 44.1391 25.9507 42.684C25.3178 41.2289 25.0009 39.6676 25 38C25 36.3333 25.3169 34.772 25.9507 33.316C26.5844 31.86 27.4396 30.5933 28.516 29.516C29.5942 28.4387 30.8609 27.5836 32.316 26.9507C33.7711 26.3178 35.3324 26.0009 37 26C38.8222 26 40.5502 26.3889 42.184 27.1667C43.8178 27.9444 45.2009 29.0444 46.3333 30.4667V27.3333H49V35.3333H41V32.6667H44.6667C43.7556 31.4222 42.6333 30.4444 41.3 29.7333C39.9667 29.0222 38.5333 28.6667 37 28.6667C34.4 28.6667 32.1942 29.5724 30.3827 31.384C28.5711 33.1956 27.6658 35.4009 27.6667 38C27.6667 40.6 28.5724 42.8058 30.384 44.6173C32.1956 46.4289 34.4009 47.3342 37 47.3333C39.3333 47.3333 41.3724 46.5778 43.1173 45.0667C44.8622 43.5556 45.8898 41.6444 46.2 39.3333H48.9333C48.6 42.3778 47.2947 44.9169 45.0173 46.9507C42.74 48.9844 40.0676 50.0009 37 50ZM40.7333 43.6L35.6667 38.5333V31.3333H38.3333V37.4667L42.6 41.7333L40.7333 43.6Z" fill="white"/>
<defs>
<linearGradient id="paint0_linear_79_465" x1="1.30299" y1="75" x2="54.5832" y2="11.4338" gradientUnits="userSpaceOnUse">
<stop stop-color="#00F3B9"/>
<stop offset="1" stop-color="#2187FF"/>
</linearGradient>
</defs>
</svg>
